# xmcd CD database file
#
# Track frame offsets:
#	150
#	16703
#	38384
#	51894
#	83822
#	94591
#	114669
#	130161
#	151981
#	165129
#	184112
#	200434
#	216566
#	240904
#	262669
#	273540
#
# Disc length: 3901 seconds
#
# Revision: 1
# Processed by: cddbd v1.5.1PL0 Copyright (c) Steve Scherf et al.
# Submitted via: CDex 1.51
#
DISCID=c10f3b10
DTITLE=A. Anusausko dziazo kvartetas - Jazz klasika
DYEAR=2002
DGENRE=Jazz
TTITLE0=Don't Get Around Much Anymore
TTITLE1=Corcovado
TTITLE2=Blueberry Hill
TTITLE3=My One And Only Love
TTITLE4=Hello, Dolly
TTITLE5=Misty
TTITLE6=Mack "The Knife"
TTITLE7=How Insensitive
TTITLE8=Billies Bounce
TTITLE9=A Kiss To Build A Dream On
TTITLE10=Lullaby Of Birdland
TTITLE11=Someday My Prince Will Come
TTITLE12=Night and Day
TTITLE13=I left My Heart In San Francisco
TTITLE14=Tea for Two
TTITLE15=What A Wonderfull World
EXTD=YEAR: 2002
EXTT0=
EXTT1=
EXTT2=
EXTT3=
EXTT4=
EXTT5=
EXTT6=
EXTT7=
EXTT8=
EXTT9=
EXTT10=
EXTT11=
EXTT12=
EXTT13=
EXTT14=
EXTT15=
PLAYORDER=
